<?xml version="1.0" encoding="UTF-8"?>
<!DOCTYPE svg PUBLIC "-//W3C//DTD SVG 1.1//EN" "http://www.w3.org/Graphics/SVG/1.1/DTD/svg11.dtd">
<svg xmlns="http://www.w3.org/2000/svg" version="1.1" width="1080px" height="1080px" style="shape-rendering:geometricPrecision; text-rendering:geometricPrecision; image-rendering:optimizeQuality; fill-rule:evenodd; clip-rule:evenodd" xmlns:xlink="http://www.w3.org/1999/xlink">
<g><path style="opacity:0.982" fill="#ff0073" d="M 488.5,218.5 C 489.333,351.999 489.833,485.666 490,619.5C 506.346,547.761 522.679,476.095 539,404.5C 555.491,476.131 571.824,547.798 588,619.5C 588.167,485.832 588.667,352.165 589.5,218.5C 606.413,221.562 623.08,225.562 639.5,230.5C 639.833,436.834 639.5,643.168 638.5,849.5C 622.544,854.906 606.211,858.573 589.5,860.5C 572.861,785.805 556.027,711.138 539,636.5C 522.019,710.424 505.352,784.424 489,858.5C 486.879,860.457 484.379,860.957 481.5,860C 467.021,856.963 452.688,853.463 438.5,849.5C 438.333,643.5 438.5,437.5 439,231.5C 441.398,230.144 443.898,228.977 446.5,228C 460.504,224.236 474.504,221.069 488.5,218.5 Z"/></g>
<g><path style="opacity:0.985" fill="#ff0073" d="M 413.5,240.5 C 414.5,240.5 415.5,240.5 416.5,240.5C 416.5,348.833 416.5,457.167 416.5,565.5C 367.167,565.5 317.833,565.5 268.5,565.5C 276.758,644.038 311.591,707.704 373,756.5C 373.833,777.175 373.666,797.841 372.5,818.5C 294.274,769.467 244.441,699.801 223,609.5C 202.029,497.125 229.696,398.791 306,314.5C 337.105,282.884 372.938,258.217 413.5,240.5 Z M 364.5,330.5 C 365.499,391.998 365.832,453.664 365.5,515.5C 333.167,515.5 300.833,515.5 268.5,515.5C 276.527,441.104 308.527,379.437 364.5,330.5 Z"/></g>
<g><path style="opacity:0.983" fill="#ff0073" d="M 661.5,240.5 C 740.639,273.135 798.139,328.468 834,406.5C 871.223,493.872 871.89,581.539 836,669.5C 832.487,678.026 828.321,686.192 823.5,694C 803.825,694.833 784.158,694.666 764.5,693.5C 790.218,654.685 805.218,612.018 809.5,565.5C 777.167,565.5 744.833,565.5 712.5,565.5C 712.667,648.501 712.5,731.501 712,814.5C 695.901,824.632 679.068,833.299 661.5,840.5C 661.5,640.5 661.5,440.5 661.5,240.5 Z M 712.5,330.5 C 769.771,378.695 802.105,440.362 809.5,515.5C 777.167,515.5 744.833,515.5 712.5,515.5C 712.5,453.833 712.5,392.167 712.5,330.5 Z"/></g>
</svg>
